<?xml version="1.0" standalone="no"?>
<!DOCTYPE svg PUBLIC "-//W3C//DTD SVG 20010904//EN"
 "http://www.w3.org/TR/2001/REC-SVG-20010904/DTD/svg10.dtd">
<svg version="1.0" xmlns="http://www.w3.org/2000/svg"
 width="188.000000pt" height="141.000000pt" viewBox="0 0 188.000000 141.000000"
 preserveAspectRatio="xMidYMid meet">
<metadata>
Created by potrace 1.10, written by Peter Selinger 2001-2011
</metadata>
<g transform="translate(0.000000,141.000000) scale(0.100000,-0.100000)"
fill="#000000" stroke="none">
<path d="M1525 1235 c-5 -2 -22 -6 -38 -9 -36 -8 -107 -73 -124 -113 -28 -67
-12 -172 34 -224 12 -14 9 -23 -30 -70 -23 -30 -77 -99 -119 -154 l-77 -101
-41 4 c-22 2 -47 -1 -55 -8 -17 -14 -20 -12 -118 69 -65 54 -76 68 -70 85 13
34 7 104 -11 131 -30 46 -75 67 -134 62 -57 -4 -91 -27 -119 -81 -19 -36 -12
-109 12 -136 16 -17 13 -22 -54 -104 -39 -48 -74 -93 -78 -101 -8 -13 -15 -13
-58 1 -41 13 -58 14 -92 5 -176 -48 -178 -294 -4 -341 75 -20 164 19 198 88
25 52 23 129 -5 175 l-23 36 78 98 78 98 35 -12 c39 -13 82 -7 121 15 25 14
28 13 111 -54 l86 -69 -5 -45 c-6 -56 20 -94 76 -111 47 -14 93 6 116 51 19
36 19 53 0 90 l-15 30 112 147 c61 82 115 152 118 156 4 5 21 2 38 -7 46 -24
130 -21 183 7 66 35 102 93 107 171 5 71 -10 109 -61 164 -39 40 -130 71 -172
57z m115 -49 c8 -1 30 -24 48 -49 58 -80 56 -160 -6 -226 -20 -22 -50 -44 -65
-50 -159 -61 -303 124 -207 265 17 24 37 44 44 44 8 0 19 6 26 14 19 24 59 24
160 2z m-814 -340 c29 -29 34 -41 34 -83 0 -60 -25 -89 -85 -98 -78 -11 -115
14 -129 88 -12 66 42 127 113 127 24 0 42 -9 67 -34z m340 -314 c35 -23 37
-87 3 -118 -27 -24 -80 -20 -102 7 -25 31 -20 98 8 109 25 11 77 12 91 2z
m-701 -86 c35 -15 63 -61 70 -116 5 -39 -30 -107 -67 -130 -120 -73 -267 60
-203 184 36 69 121 95 200 62z"/>
<path d="M1337 614 c-4 -4 -7 -20 -7 -35 0 -24 -4 -28 -32 -31 -21 -2 -33 -8
-33 -18 0 -10 12 -16 33 -18 28 -3 32 -7 32 -33 0 -24 4 -30 18 -27 11 2 17
12 17 28 0 20 6 26 30 30 18 3 31 12 33 23 3 13 -4 17 -31 17 -33 0 -35 2 -33
31 1 31 -13 47 -27 33z"/>
</g>
</svg>
