<svg width="1519" height="570" viewBox="0 0 1519 570" fill="none" xmlns="http://www.w3.org/2000/svg">
<path d="M80.5 241.822C55.8133 241.822 36.1713 235.167 21.574 221.858C7.19133 208.334 -1.98558e-06 190.195 -1.98558e-06 167.44H48.3C48.3 177.315 51.198 185.257 56.994 191.268C62.79 197.064 70.6253 199.962 80.5 199.962C90.3747 199.962 98.21 197.171 104.006 191.59C109.802 185.794 112.7 177.959 112.7 168.084V48.3H59.57V3.22002H161V168.084C161 190.839 153.809 208.871 139.426 222.18C125.043 235.275 105.401 241.822 80.5 241.822ZM212.394 238.28V3.22002H357.294V44.436H259.728V97.244H346.024V138.46H259.728V197.064H357.294V238.28H212.394ZM400.638 238.28V3.22002H476.308C493.052 3.22002 507.542 6.11802 519.778 11.914C532.014 17.71 541.46 25.9747 548.114 36.708C554.984 47.4414 558.418 60.1067 558.418 74.704C558.418 89.9454 554.662 103.577 547.148 115.598C539.85 127.619 529.868 136.313 517.202 141.68L561.638 238.28H509.152L471.156 149.408H448.616V238.28H400.638ZM448.616 107.548H476.308C487.042 107.548 495.306 104.865 501.102 99.498C507.113 94.1314 510.118 86.618 510.118 76.958C510.118 66.8687 507.113 59.0334 501.102 53.452C495.306 47.8707 487.042 45.08 476.308 45.08H448.616V107.548ZM598.543 238.28V3.22002H743.443V44.436H645.877V97.244H732.173V138.46H645.877V197.064H743.443V238.28H598.543ZM862.457 241.5C845.928 241.5 831.545 238.709 819.309 233.128C807.073 227.547 797.628 219.711 790.973 209.622C784.318 199.533 780.991 187.619 780.991 173.88H829.291C829.291 181.823 832.296 188.155 838.307 192.878C844.532 197.386 852.904 199.64 863.423 199.64C873.512 199.64 881.348 197.386 886.929 192.878C892.725 188.37 895.623 182.145 895.623 174.202C895.623 167.333 893.476 161.429 889.183 156.492C884.89 151.555 878.879 148.227 871.151 146.51L847.323 141.036C827.359 136.313 811.796 127.619 800.633 114.954C789.685 102.074 784.211 86.4034 784.211 67.942C784.211 54.2033 787.324 42.2893 793.549 32.2C799.989 21.896 809.005 13.9534 820.597 8.37201C832.189 2.79069 845.928 2.6226e-05 861.813 2.6226e-05C885.856 2.6226e-05 904.854 6.01069 918.807 18.032C932.975 29.8387 940.059 45.8314 940.059 66.01H891.759C891.759 58.4967 889.076 52.5933 883.709 48.3C878.557 44.0067 871.044 41.86 861.169 41.86C851.938 41.86 844.854 44.0067 839.917 48.3C834.98 52.3787 832.511 58.282 832.511 66.01C832.511 72.8794 834.443 78.7827 838.307 83.72C842.386 88.4427 848.074 91.6627 855.373 93.38L880.489 99.176C901.312 103.899 917.09 112.485 927.823 124.936C938.556 137.172 943.923 152.843 943.923 171.948C943.923 185.687 940.488 197.815 933.619 208.334C926.964 218.853 917.519 227.01 905.283 232.806C893.262 238.602 878.986 241.5 862.457 241.5ZM980.183 238.28V3.22002H1028.48V93.38H1082.58V3.22002H1130.88V238.28H1082.58V138.46H1028.48V238.28H980.183ZM1160.06 238.28L1217.69 3.22002H1278.87L1337.16 238.28H1287.89L1276.62 185.15H1220.59L1209.32 238.28H1160.06ZM1228.64 146.51H1268.25L1256.98 89.838C1255.47 81.6807 1253.86 73.6307 1252.15 65.688C1250.64 57.5307 1249.46 51.198 1248.61 46.69C1247.75 51.198 1246.57 57.4234 1245.06 65.366C1243.78 73.3087 1242.27 81.3587 1240.56 89.516L1228.64 146.51ZM1364.4 238.28V3.22002H1420.75L1481.61 185.15C1480.96 177.207 1480.21 168.084 1479.35 157.78C1478.49 147.261 1477.74 136.85 1477.1 126.546C1476.67 116.027 1476.46 107.119 1476.46 99.82V3.22002H1518.96V238.28H1462.61L1402.4 56.35C1403.04 63.2194 1403.68 71.3767 1404.33 80.822C1404.97 90.2674 1405.51 99.82 1405.94 109.48C1406.58 119.14 1406.9 127.727 1406.9 135.24V238.28H1364.4ZM379.771 569.5C363.242 569.5 348.859 566.709 336.623 561.128C324.387 555.547 314.942 547.711 308.287 537.622C301.633 527.533 298.305 515.619 298.305 501.88H346.605C346.605 509.823 349.611 516.155 355.621 520.878C361.847 525.386 370.219 527.64 380.737 527.64C390.827 527.64 398.662 525.386 404.243 520.878C410.039 516.37 412.937 510.145 412.937 502.202C412.937 495.333 410.791 489.429 406.497 484.492C402.204 479.555 396.193 476.227 388.465 474.51L364.637 469.036C344.673 464.313 329.11 455.619 317.947 442.954C306.999 430.074 301.525 414.403 301.525 395.942C301.525 382.203 304.638 370.289 310.863 360.2C317.303 349.896 326.319 341.953 337.911 336.372C349.503 330.791 363.242 328 379.127 328C403.17 328 422.168 334.011 436.121 346.032C450.289 357.839 457.373 373.831 457.373 394.01H409.073C409.073 386.497 406.39 380.593 401.023 376.3C395.871 372.007 388.358 369.86 378.483 369.86C369.253 369.86 362.169 372.007 357.231 376.3C352.294 380.379 349.825 386.282 349.825 394.01C349.825 400.879 351.757 406.783 355.621 411.72C359.7 416.443 365.389 419.663 372.687 421.38L397.803 427.176C418.626 431.899 434.404 440.485 445.137 452.936C455.871 465.172 461.237 480.843 461.237 499.948C461.237 513.687 457.803 525.815 450.933 536.334C444.279 546.853 434.833 555.01 422.597 560.806C410.576 566.602 396.301 569.5 379.771 569.5ZM502.006 566.28V524.42H548.696V373.08H502.006V331.22H643.686V373.08H596.996V524.42H643.686V566.28H502.006ZM688.64 566.28V331.22H744.99L805.848 513.15C805.204 505.207 804.452 496.084 803.594 485.78C802.735 475.261 801.984 464.85 801.34 454.546C800.91 444.027 800.696 435.119 800.696 427.82V331.22H843.2V566.28H786.85L726.636 384.35C727.28 391.219 727.924 399.377 728.568 408.822C729.212 418.267 729.748 427.82 730.178 437.48C730.822 447.14 731.144 455.727 731.144 463.24V566.28H688.64ZM870.444 566.28L928.082 331.22H989.262L1047.54 566.28H998.278L987.008 513.15H930.98L919.71 566.28H870.444ZM939.03 474.51H978.636L967.366 417.838C965.863 409.681 964.253 401.631 962.536 393.688C961.033 385.531 959.853 379.198 958.994 374.69C958.135 379.198 956.955 385.423 955.452 393.366C954.164 401.309 952.661 409.359 950.944 417.516L939.03 474.51ZM1074.79 566.28V331.22H1131.14L1192 513.15C1191.35 505.207 1190.6 496.084 1189.74 485.78C1188.88 475.261 1188.13 464.85 1187.49 454.546C1187.06 444.027 1186.84 435.119 1186.84 427.82V331.22H1229.35V566.28H1173L1112.78 384.35C1113.43 391.219 1114.07 399.377 1114.72 408.822C1115.36 418.267 1115.9 427.82 1116.33 437.48C1116.97 447.14 1117.29 455.727 1117.29 463.24V566.28H1074.79Z" fill="white" fill-opacity="0.02"/>
</svg>
